# xmcd CD database file
#
# Track frame offsets:
#	150
#	53735
#	138720
#	200469
#	233246
#	272171
#	317231
#
# Disc length: 4690 seconds
#
# Revision: 0
# Processed by: cddbd v1.5.2PL0 Copyright (c) Steve Scherf et al.
# Submitted via: CDex 1.51
#
DISCID=68125007
DTITLE=Archie Shepp and Marc Ribot  - Jazzfestival in Porquerolles 2010
DYEAR=2010
DGENRE=Jazz
TTITLE0=Archie Shepp and Marc Ribot - The stars are in your eyes
TTITLE1=Archie Shepp and Marc Ribot - Revolution
TTITLE2=Archie Shepp and Marc Ribot - Dedication to Bessie Smith Blues..Trippin
TTITLE3=Archie Shepp and Marc Ribot - Dig it
TTITLE4=Archie Shepp and Marc Ribot - Ill Biz
TTITLE5=Archie Shepp and Marc Ribot - U-Jaama
TTITLE6=Archie Shepp and Marc Ribot - Don't get around much anymore
EXTD=YEAR: 2010
EXTT0=
EXTT1=
EXTT2=
EXTT3=
EXTT4=
EXTT5=
EXTT6=
PLAYORDER=
